<svg id="Layer_1" xmlns="http://www.w3.org/2000/svg" viewBox="0 0 180 80">
    <style>
        .st0{fill:#fff}.st1{fill:#5bb96e}
    </style>
    <path class="st0" d="M156.5 43.3h-12v12h12v12h12v-24z"/>
    <path class="st0" d="M164.3 18.4c-1.3-.9-2.6-1.6-3.9-2.3-4.6-2.3-9.7-3.5-14.9-3.5-8.9 0-16.9 3.4-22.9 9.1l2.7-8.4h-12.5L101.5 48 90.2 13.3H78.7L67.5 48 56.2 13.3H11.5v12h13v42h13v-42h10.1l13.7 42h12.4l10.8-32.9 10.7 32.9h12.5l4.7-14.5c1 5.3 3.3 10.3 6.7 14.6h13.3v-3.5c-5.4-4-8.8-10.5-8.8-17.4 0-12 9.8-21.8 21.8-21.8 4 0 7.8 1.1 11.2 3.1.3.2.7.4 1 .6l.4.3 6.7-9.9-.4-.4z"/>
</svg>
